<svg width="119" height="24" viewBox="0 0 119 24" fill="none" xmlns="http://www.w3.org/2000/svg">
<circle cx="106.154" cy="12" r="12" fill="white"/>
<path d="M103.246 16.6154V9.14179H100.762V16.6154H103.246ZM102.004 8.12079C102.87 8.12079 103.41 7.54691 103.41 6.82974C103.393 6.09641 102.87 5.53845 102.021 5.53845C101.171 5.53845 100.615 6.09642 100.615 6.82974C100.615 7.54694 101.154 8.12079 101.988 8.12079H102.004H102.004ZM104.621 16.6154H107.105V12.4418C107.105 12.2184 107.121 11.9953 107.187 11.8356C107.366 11.3893 107.775 10.9271 108.461 10.9271C109.36 10.9271 109.72 11.6124 109.72 12.6171V16.6153H112.204V12.33C112.204 10.0344 110.978 8.96634 109.344 8.96634C108.004 8.96634 107.415 9.71538 107.088 10.2255H107.105V9.14164H104.621C104.653 9.84292 104.621 16.6152 104.621 16.6152L104.621 16.6154Z" fill="#25201D"/>
<circle cx="74.7691" cy="12" r="12" fill="white"/>
<path d="M81.2072 8.5755C80.7647 8.77491 80.2922 8.91076 79.7947 8.97279C80.3017 8.65957 80.6917 8.1659 80.8762 7.57688C80.4007 7.8614 79.8737 8.0685 79.3127 8.18384C78.8648 7.69223 78.2263 7.38464 77.5173 7.38464C76.1589 7.38464 75.0574 8.51398 75.0574 9.90528C75.0574 10.1052 75.0799 10.2974 75.1209 10.4815C73.076 10.3825 71.2636 9.37572 70.0506 7.85371C69.8371 8.22383 69.7176 8.65393 69.7176 9.12248C69.7176 9.99909 70.1526 10.7696 70.8116 11.2222C70.4081 11.2089 70.0286 11.0951 69.6976 10.9065V10.9377C69.6976 12.1604 70.5441 13.18 71.6706 13.4122C71.4641 13.4691 71.2461 13.4999 71.0226 13.4999C70.8656 13.4999 70.7151 13.4845 70.5646 13.4558C70.8801 14.457 71.787 15.187 72.8665 15.2075C72.0265 15.8836 70.9621 16.2866 69.8156 16.2866C69.6206 16.2866 69.4261 16.2748 69.2307 16.2522C70.3251 16.9668 71.6146 17.3846 73.009 17.3846C77.5358 17.3846 80.0082 13.5419 80.0082 10.2149C80.0082 10.1078 80.0082 9.9996 80.0007 9.89195C80.4812 9.53874 80.9007 9.09224 81.2307 8.58575L81.2072 8.5755Z" fill="#25201D"/>
<circle cx="43.3845" cy="12" r="12" fill="white"/>
<path d="M43.3845 6.46155C41.8799 6.46155 41.6921 6.46847 41.1013 6.49478C40.5115 6.52247 40.1099 6.61524 39.7568 6.75232C39.3927 6.89355 39.0835 7.08324 38.7756 7.39109C38.4678 7.69893 38.2776 8.0077 38.1368 8.37232C37.9998 8.72539 37.9065 9.12693 37.8793 9.71678C37.8516 10.3075 37.8461 10.4954 37.8461 12C37.8461 13.5046 37.853 13.6925 37.8793 14.2832C37.907 14.8726 37.9998 15.2746 38.1368 15.6277C38.2781 15.9914 38.4678 16.3011 38.7756 16.6089C39.0835 16.9163 39.3922 17.1069 39.7568 17.2477C40.1104 17.3843 40.5119 17.478 41.1013 17.5052C41.6921 17.5329 41.8799 17.5385 43.3845 17.5385C44.8891 17.5385 45.077 17.5315 45.6678 17.5052C46.2571 17.4775 46.6591 17.3843 47.0122 17.2477C47.3759 17.1065 47.6856 16.9163 47.9935 16.6089C48.3008 16.3011 48.4915 15.9928 48.6322 15.6277C48.7688 15.2746 48.8625 14.8726 48.8898 14.2832C48.9175 13.6925 48.923 13.5046 48.923 12C48.923 10.4954 48.9161 10.3075 48.8898 9.71678C48.8621 9.12739 48.7688 8.72493 48.6322 8.37232C48.491 8.00816 48.3008 7.69893 47.9935 7.39109C47.6856 7.08324 47.3773 6.89309 47.0122 6.75232C46.6591 6.61524 46.2571 6.52201 45.6678 6.49478C45.077 6.46709 44.8891 6.46155 43.3845 6.46155ZM43.3845 7.45847C44.8628 7.45847 45.0391 7.46586 45.623 7.49124C46.163 7.51662 46.4561 7.60616 46.6508 7.68278C46.9102 7.78293 47.0939 7.90293 47.2887 8.09632C47.4821 8.29016 47.6021 8.47432 47.7022 8.7337C47.7779 8.92847 47.8684 9.22155 47.8928 9.76155C47.9191 10.3459 47.9251 10.5212 47.9251 12C47.9251 13.4788 47.9182 13.6546 47.891 14.2385C47.8628 14.7785 47.7728 15.0715 47.6967 15.2663C47.5933 15.5257 47.4756 15.7094 47.2818 15.9042C47.0884 16.0975 46.9015 16.2175 46.6448 16.3177C46.451 16.3934 46.1533 16.4839 45.6133 16.5083C45.0253 16.5346 44.8522 16.5406 43.3707 16.5406C41.8887 16.5406 41.7156 16.5337 41.1281 16.5065C40.5876 16.4783 40.2899 16.3883 40.0961 16.3122C39.8335 16.2088 39.653 16.0911 39.4596 15.8972C39.2653 15.7039 39.1411 15.5169 39.0442 15.2603C38.9681 15.0665 38.8785 14.7688 38.8504 14.2288C38.8296 13.6472 38.8222 13.4677 38.8222 11.9931C38.8222 10.518 38.8296 10.338 38.8504 9.74955C38.8785 9.20955 38.9681 8.91232 39.0442 8.71847C39.1411 8.45539 39.2653 8.27539 39.4596 8.08109C39.653 7.8877 39.8335 7.76309 40.0961 7.66662C40.2899 7.59001 40.5811 7.50001 41.1211 7.47232C41.7096 7.45155 41.8827 7.44462 43.3638 7.44462L43.3845 7.45847ZM43.3845 9.15601C41.813 9.15601 40.5405 10.4299 40.5405 12C40.5405 13.5715 41.8144 14.844 43.3845 14.844C44.9561 14.844 46.2285 13.5702 46.2285 12C46.2285 10.4285 44.9547 9.15601 43.3845 9.15601ZM43.3845 13.8462C42.3645 13.8462 41.5384 13.02 41.5384 12C41.5384 10.98 42.3645 10.1539 43.3845 10.1539C44.4045 10.1539 45.2307 10.98 45.2307 12C45.2307 13.02 44.4045 13.8462 43.3845 13.8462ZM47.0058 9.04386C47.0058 9.41078 46.7076 9.70847 46.3411 9.70847C45.9742 9.70847 45.6765 9.41032 45.6765 9.04386C45.6765 8.67739 45.9747 8.3797 46.3411 8.3797C46.7071 8.37924 47.0058 8.67739 47.0058 9.04386Z" fill="#25201D"/>
<circle cx="11.9999" cy="12" r="12" fill="white"/>
<path d="M14.7743 12.692L15.082 10.6874H13.1585V9.38655C13.1585 8.83824 13.4271 8.30343 14.2887 8.30343H15.163V6.59689C15.163 6.59689 14.3697 6.46155 13.6109 6.46155C12.0269 6.46155 10.9915 7.42178 10.9915 9.15982V10.6877H9.23065V12.6923H10.9915V17.5385H13.1585V12.6923L14.7743 12.692Z" fill="#25201D"/>
</svg>
